<svg width="1106" height="553" viewBox="0 0 1106 553" fill="none" xmlns="http://www.w3.org/2000/svg">
<path d="M0 0.208984C0 0.208984 111.594 316.916 463.938 149.378C816.282 -18.1604 1000.96 115.478 1059.62 185.715C1118.29 255.951 1147.16 456.606 913.003 552.155" stroke="#F3F6F8" stroke-width="3"/>
<path d="M976.599 562.022C997.081 562.022 1013.68 546.124 1013.68 526.512C1013.68 506.9 997.081 491.002 976.599 491.002C956.117 491.002 939.513 506.9 939.513 526.512C939.513 546.124 956.117 562.022 976.599 562.022Z" fill="#F9B8C4"/>
<path d="M447.655 59.5221C451.999 59.5221 455.522 56.0801 455.522 51.8343C455.522 47.5884 451.999 44.1465 447.655 44.1465C443.31 44.1465 439.788 47.5884 439.788 51.8343C439.788 56.0801 443.31 59.5221 447.655 59.5221Z" fill="#1A49BA"/>
<path opacity="0.15" d="M62.1847 77.0951C62.1857 81.1947 61.763 85.2839 60.923 89.3004C59.2939 97.0545 56.1172 104.419 51.5743 110.973C45.8662 119.218 38.1848 125.978 29.1971 130.664C20.2094 135.351 10.187 137.823 0 137.865L0 16.325C4.21452 16.3476 8.4162 16.7812 12.5426 17.6194C22.4133 19.6304 31.6396 23.9456 39.434 30.1965C47.2283 36.4475 53.3593 44.4486 57.3035 53.517C58.8919 57.1815 60.1046 60.9908 60.9237 64.8891C61.7635 68.9059 62.186 72.9953 62.1847 77.0951V77.0951Z" fill="#0099FF"/>
<path d="M380.975 430.915C383.01 432.063 384.923 433.406 386.685 434.926C390.894 438.563 394.14 443.142 396.146 448.271C398.152 453.4 398.858 458.927 398.205 464.38C397.939 466.582 397.45 468.753 396.746 470.86C396.019 473.03 395.07 475.122 393.914 477.105L333.572 443.06C334.751 441.089 336.131 439.239 337.69 437.539C340.705 434.258 344.351 431.589 348.421 429.683C353.539 427.281 359.18 426.138 364.854 426.352C370.528 426.567 376.062 428.133 380.975 430.915V430.915Z" fill="#FFA735"/>
<path opacity="0.25" d="M199.666 483.002C204.592 483 209.507 483.478 214.337 484.426C232.932 488.092 249.341 498.675 260.1 513.942C268.25 525.497 272.646 539.184 272.714 553.217H126.617C126.688 539.183 131.084 525.496 139.232 513.94C149.991 498.672 166.4 488.088 184.995 484.424C189.825 483.476 194.739 483 199.666 483.002V483.002Z" fill="#FFA81F"/>
<path d="M0 297.488C0 297.488 187.303 326.79 187.303 552.518" stroke="#F3F6F8" stroke-width="4"/>
<path d="M197.043 317.978C238.834 317.978 272.713 284.87 272.713 244.029C272.713 203.188 238.834 170.08 197.043 170.08C155.251 170.08 121.372 203.188 121.372 244.029C121.372 284.87 155.251 317.978 197.043 317.978Z" fill="#0099FF"/>
<g filter="url(#filter0_d_9_481)">
<path d="M256.981 230.852C288.428 230.852 313.921 205.939 313.921 175.207C313.921 144.476 288.428 119.562 256.981 119.562C225.534 119.562 200.041 144.476 200.041 175.207C200.041 205.939 225.534 230.852 256.981 230.852Z" fill="white"/>
</g>
<path d="M270.864 166.123V159.84C271.721 159.452 272.446 158.836 272.956 158.064C273.466 157.292 273.738 156.395 273.743 155.479V155.335C273.743 152.663 271.508 150.497 268.751 150.497H268.602C267.278 150.497 266.008 151.006 265.072 151.914C264.135 152.821 263.609 154.052 263.609 155.335V155.479C263.614 156.395 263.887 157.292 264.396 158.064C264.906 158.836 265.631 159.452 266.488 159.84V166.123C264.026 166.488 261.707 167.477 259.766 168.99L241.986 155.57C242.113 155.126 242.179 154.67 242.187 154.213C242.189 153.134 241.861 152.08 241.245 151.182C240.628 150.284 239.751 149.584 238.724 149.17C237.697 148.755 236.566 148.645 235.474 148.854C234.383 149.062 233.379 149.58 232.591 150.341C231.803 151.102 231.266 152.073 231.047 153.13C230.829 154.187 230.938 155.284 231.362 156.28C231.787 157.277 232.506 158.13 233.431 158.73C234.355 159.33 235.442 159.651 236.555 159.653C237.528 159.648 238.483 159.396 239.325 158.922L256.832 172.126C255.26 174.428 254.439 177.137 254.478 179.898C254.517 182.659 255.413 185.345 257.049 187.605L251.724 192.768C251.294 192.634 250.846 192.563 250.394 192.557C249.48 192.558 248.588 192.821 247.829 193.313C247.07 193.806 246.478 194.505 246.129 195.323C245.78 196.14 245.689 197.04 245.867 197.908C246.045 198.776 246.485 199.573 247.131 200.199C247.777 200.825 248.6 201.251 249.495 201.424C250.391 201.597 251.319 201.509 252.163 201.17C253.007 200.832 253.729 200.259 254.236 199.523C254.744 198.788 255.016 197.923 255.016 197.038C255.01 196.6 254.937 196.165 254.8 195.748L260.067 190.641C261.785 191.922 263.783 192.806 265.908 193.224C268.032 193.642 270.228 193.583 272.325 193.051C274.423 192.52 276.367 191.531 278.009 190.159C279.65 188.787 280.947 187.069 281.798 185.136C282.648 183.204 283.032 181.108 282.918 179.01C282.804 176.912 282.196 174.867 281.141 173.032C280.086 171.196 278.611 169.62 276.83 168.422C275.048 167.224 273.008 166.438 270.864 166.123M268.681 186.786C267.707 186.812 266.738 186.648 265.831 186.305C264.923 185.962 264.096 185.446 263.398 184.788C262.7 184.13 262.145 183.343 261.766 182.473C261.388 181.604 261.192 180.67 261.192 179.726C261.192 178.782 261.388 177.847 261.766 176.978C262.145 176.108 262.7 175.321 263.398 174.663C264.096 174.005 264.923 173.489 265.831 173.146C266.738 172.803 267.707 172.639 268.681 172.665C270.568 172.729 272.355 173.501 273.667 174.817C274.979 176.133 275.713 177.891 275.714 179.72C275.715 181.55 274.983 183.309 273.672 184.626C272.362 185.944 270.575 186.717 268.688 186.782" fill="#FF7A59"/>
<g filter="url(#filter1_d_9_481)">
<path d="M399.33 452.698C421.261 452.698 439.039 435.324 439.039 413.893C439.039 392.461 421.261 375.088 399.33 375.088C377.4 375.088 359.622 392.461 359.622 413.893C359.622 435.324 377.4 452.698 399.33 452.698Z" fill="white"/>
</g>
<path d="M392.151 399.178C392.556 398.06 393.211 397.044 394.07 396.206C394.899 395.418 395.903 394.827 397.003 394.48C398.104 394.133 399.272 394.039 400.416 394.205C401.56 394.371 402.649 394.793 403.599 395.437C404.549 396.082 405.333 396.932 405.892 397.922C407.702 401.143 409.622 404.292 411.486 407.475C414.6 412.765 417.751 418.055 420.828 423.363C421.314 424.204 421.625 425.13 421.742 426.088C421.86 427.046 421.783 428.018 421.514 428.947C421.246 429.876 420.792 430.743 420.179 431.5C419.566 432.257 418.806 432.887 417.942 433.355C417.078 433.824 416.128 434.12 415.147 434.228C414.165 434.335 413.172 434.252 412.223 433.983C411.275 433.713 410.39 433.263 409.621 432.658C408.851 432.053 408.212 431.306 407.74 430.458C405.006 425.805 402.266 421.158 399.521 416.517C399.465 416.416 399.398 416.321 399.321 416.233C399.069 415.983 398.866 415.689 398.722 415.367C397.509 413.279 396.26 411.209 395.047 409.139C394.269 407.794 393.454 406.467 392.676 405.123C391.98 403.941 391.635 402.593 391.68 401.23C391.699 400.524 391.859 399.827 392.151 399.18" fill="#3C8BD9"/>
<path d="M392.15 399.178C391.971 399.814 391.856 400.466 391.806 401.124C391.754 402.583 392.131 404.026 392.892 405.282C394.884 408.625 396.869 411.981 398.849 415.348C399.03 415.649 399.175 415.95 399.356 416.233C398.269 418.073 397.183 419.894 396.079 421.735C394.558 424.298 393.037 426.884 391.499 429.448C391.424 429.448 391.408 429.413 391.39 429.36C391.389 429.221 391.414 429.082 391.465 428.953C391.843 427.737 391.881 426.444 391.576 425.209C391.27 423.974 390.632 422.842 389.727 421.929C388.616 420.742 387.107 419.983 385.473 419.788C384.445 419.634 383.395 419.694 382.393 419.966C381.391 420.237 380.46 420.713 379.66 421.363C379.352 421.593 379.153 421.929 378.791 422.106C378.763 422.109 378.735 422.102 378.712 422.086C378.689 422.071 378.672 422.048 378.664 422.022C379.533 420.553 380.387 419.085 381.253 417.616C384.837 411.528 388.428 405.447 392.025 399.373C392.061 399.3 392.115 399.249 392.151 399.178" fill="#FABC04"/>
<path d="M378.737 422.071C379.081 421.77 379.407 421.452 379.768 421.169C380.782 420.395 381.984 419.889 383.256 419.701C384.528 419.513 385.829 419.649 387.032 420.095C388.235 420.542 389.299 421.284 390.123 422.25C390.947 423.216 391.502 424.373 391.735 425.61C391.957 426.87 391.857 428.164 391.445 429.378C391.429 429.48 391.404 429.581 391.37 429.679C391.207 429.962 391.062 430.265 390.882 430.546C390.201 431.775 389.165 432.782 387.903 433.439C386.641 434.097 385.209 434.377 383.785 434.243C382.068 434.127 380.446 433.432 379.196 432.277C377.945 431.121 377.143 429.578 376.927 427.909C376.688 426.276 377.039 424.612 377.922 423.205C378.103 422.887 378.32 422.603 378.521 422.285C378.612 422.212 378.575 422.073 378.738 422.073" fill="#34A852"/>
<path d="M378.736 422.074C378.661 422.147 378.661 422.268 378.537 422.285C378.52 422.162 378.591 422.091 378.664 422.003L378.738 422.076" fill="#FABC04"/>
<path d="M391.373 429.678C391.298 429.555 391.373 429.466 391.448 429.378L391.523 429.451L391.378 429.681" fill="#E1C025"/>
<path d="M1094.23 260.87C1098.57 260.87 1102.09 257.428 1102.09 253.182C1102.09 248.936 1098.57 245.494 1094.23 245.494C1089.88 245.494 1086.36 248.936 1086.36 253.182C1086.36 257.428 1089.88 260.87 1094.23 260.87Z" fill="#0099FF"/>
<defs>
<filter id="filter0_d_9_481" x="140.041" y="61.5625" width="233.88" height="231.29" filterUnits="userSpaceOnUse" color-interpolation-filters="sRGB">
<feFlood flood-opacity="0" result="BackgroundImageFix"/>
<feColorMatrix in="SourceAlpha" type="matrix" values="0 0 0 0 0 0 0 0 0 0 0 0 0 0 0 0 0 0 127 0" result="hardAlpha"/>
<feOffset dy="2"/>
<feGaussianBlur stdDeviation="30"/>
<feColorMatrix type="matrix" values="0 0 0 0 0 0 0 0 0 0 0 0 0 0 0 0 0 0 0.161 0"/>
<feBlend mode="normal" in2="BackgroundImageFix" result="effect1_dropShadow_9_481"/>
<feBlend mode="normal" in="SourceGraphic" in2="effect1_dropShadow_9_481" result="shape"/>
</filter>
<filter id="filter1_d_9_481" x="299.622" y="317.088" width="199.417" height="197.61" filterUnits="userSpaceOnUse" color-interpolation-filters="sRGB">
<feFlood flood-opacity="0" result="BackgroundImageFix"/>
<feColorMatrix in="SourceAlpha" type="matrix" values="0 0 0 0 0 0 0 0 0 0 0 0 0 0 0 0 0 0 127 0" result="hardAlpha"/>
<feOffset dy="2"/>
<feGaussianBlur stdDeviation="30"/>
<feColorMatrix type="matrix" values="0 0 0 0 0 0 0 0 0 0 0 0 0 0 0 0 0 0 0.161 0"/>
<feBlend mode="normal" in2="BackgroundImageFix" result="effect1_dropShadow_9_481"/>
<feBlend mode="normal" in="SourceGraphic" in2="effect1_dropShadow_9_481" result="shape"/>
</filter>
</defs>
</svg>
